<svg width="95" height="74" viewBox="0 0 95 74" fill="none" xmlns="http://www.w3.org/2000/svg">
<path d="M0 36.9238V0H47.5H95V36.9238V73.8477H47.5H0V36.9238ZM88.877 42.583V17.998H47.5H6.12305V42.583V67.168H47.5H88.877V42.583ZM10.5762 8.90625V6.67969H8.34961H6.12305V8.90625V11.1328H8.34961H10.5762V8.90625ZM21.709 8.90625V6.67969H19.4824H17.2559V8.90625V11.1328H19.4824H21.709V8.90625ZM33.0273 8.90625V6.67969H30.8008H28.5742V8.90625V11.1328H30.8008H33.0273V8.90625ZM88.877 8.90625V6.67969H64.292H39.707V8.90625V11.1328H64.292H88.877V8.90625Z" fill="white"/>
<path d="M47.7246 49.9246L45.7754 46.3488L45.7005 49.6518L45.6255 52.9549L42.9716 53.0003L40.3027 53.0306V42.3488V31.667H44.426C46.87 31.667 48.8491 31.7428 49.3289 31.8337C51.7879 32.364 53.842 34.3337 54.4718 36.7428C54.5917 37.2276 54.6967 38.2731 54.6967 39.0306C54.6967 41.3488 54.0669 42.9094 52.5376 44.3791L51.6829 45.1821L53.1223 47.8034C54.022 49.47 54.5467 50.6064 54.5467 50.8943C54.5467 51.3034 54.4118 51.4094 52.5976 52.4094C49.6888 54.0155 50.0636 54.2124 47.7246 49.9246ZM48.3543 40.364C48.5793 40.1973 48.8941 39.8034 49.0441 39.5003C49.3139 38.9549 49.3139 38.9246 49.0441 38.364C48.6242 37.5458 47.7996 37.1215 46.6451 37.1215H45.7005V38.9549V40.7882L46.81 40.7276C47.6346 40.6973 48.0395 40.5912 48.3543 40.364Z" fill="white"/>
<path d="M29.4144 52.9135C27.2977 52.6397 25.1049 51.0431 24.1912 49.0967C23.5212 47.6673 23.3841 46.2532 23.4603 41.3872C23.5212 37.4489 23.5516 37.1295 23.8867 36.278C24.3739 35.0463 24.6633 34.5901 25.5922 33.6473C27.0693 32.1571 28.851 31.5489 31.3483 31.6857C33.8153 31.8074 35.7188 32.8262 36.9522 34.6813C37.6984 35.7914 38.0182 36.7646 38.1552 38.3004L38.2466 39.3952H35.4903H32.7341L32.5818 38.8174C32.3991 38.1787 31.8052 37.5249 31.1808 37.2816C30.6479 37.0839 29.8712 37.4641 29.4144 38.1483C28.9728 38.8326 28.8662 39.7754 28.9423 43.0599C28.988 45.6449 29.0185 45.9034 29.323 46.4052C29.7646 47.1047 30.5413 47.5305 31.1199 47.3936C31.7138 47.2416 32.3534 46.5421 32.5818 45.797L32.7645 45.1736L35.4447 45.204L38.1248 45.2496L38.1705 45.8122C38.2466 46.679 37.942 48.0171 37.4395 49.0815C36.4802 51.1495 34.4244 52.6245 32.1097 52.9287C30.8154 53.0959 30.724 53.0959 29.4144 52.9135Z" fill="white"/>
<path d="M56.8607 52.9461C56.7997 52.9006 56.7539 48.0775 56.7539 42.2535V31.667L59.2723 31.6973L61.7907 31.7428L62.966 34.2302L64.1412 36.7176L64.5381 35.8985C64.7518 35.4435 65.2707 34.306 65.7133 33.3657L66.507 31.667H69.0407H71.5591L71.5286 42.3293L71.4828 52.9764L68.7812 53.0219L66.0644 53.0523V49.6852L66.0491 46.303L65.347 47.7894C64.6602 49.2151 64.6297 49.2606 64.126 49.2606C63.6376 49.2606 63.607 49.2151 62.9507 47.8652L62.2791 46.4547L62.2639 49.7611L62.2486 53.0523H59.6081C58.1428 53.0523 56.9065 53.0068 56.8607 52.9461Z" fill="white"/>
</svg>
